<svg width="110" height="110" viewBox="0 0 110 110" fill="none" xmlns="http://www.w3.org/2000/svg">
<path d="M55 110C85.3757 110 110 85.3757 110 55C110 24.6243 85.3757 0 55 0C24.6243 0 0 24.6243 0 55C0 85.3757 24.6243 110 55 110Z" fill="#7584F2"/>
<path d="M60.6321 109.715C88.362 106.895 110 83.4742 110 55.0001C110 52.1648 109.785 49.38 109.371 46.6603L74.5392 11.8281L45.8504 20.9287L37.1104 12.1886L27.9509 26.6068L57.6052 56.2475L54.2465 103.311L60.6321 109.715Z" fill="#4253CE"/>
<path d="M55.9792 37.5781V60.2439H60.3691L62.5642 50.1654L60.3691 37.5781H55.9792Z" fill="white"/>
<path d="M60.3691 37.5781H64.759V60.2439H60.3691V37.5781Z" fill="#DDDDDD"/>
<path d="M35.8672 13.4907H48.628V24.5236H35.8672V13.4907Z" fill="#595959"/>
<path d="M33.7122 27.3156H29.7286C28.2979 27.3156 27.1382 26.1559 27.1382 24.7252V13.2891C27.1382 11.8585 28.2979 10.6987 29.7286 10.6987H33.7122C36.2645 10.6987 38.3337 12.7679 38.3337 15.3202V22.6939C38.3337 25.2464 36.2645 27.3156 33.7122 27.3156Z" fill="#707070"/>
<path d="M48.2837 10.6987C46.5069 10.6987 45.0664 12.1393 45.0664 13.916V22.9504C45.0664 25.5015 46.8369 27.7107 49.3265 28.2665C51.8161 28.8223 53.5867 31.0315 53.5867 33.5826V38.735H60.3693L69.3485 22.0657L60.3693 10.6987H48.2837Z" fill="#707070"/>
<path d="M83.6442 23.463L74.9826 12.3146C74.1905 11.2951 72.9721 10.6987 71.6811 10.6987H60.3691V38.735H67.0763V33.3849C67.0763 30.0327 69.7937 27.3154 73.1459 27.3154H81.7588C83.745 27.3154 84.8631 25.0314 83.6442 23.463Z" fill="#595959"/>
<path d="M53.0322 62.9159V100.7C53.0322 102.586 54.5613 104.115 56.4474 104.115H60.3691L66.3203 81.024L60.3691 59.5005H56.4474C54.5613 59.5007 53.0322 61.0297 53.0322 62.9159Z" fill="#F79534"/>
<path d="M64.2157 104.115C66.1018 104.115 67.6309 102.586 67.6309 100.7V62.9156C67.6309 61.0295 66.1018 59.5005 64.2157 59.5005H60.3694V104.115H64.2157Z" fill="#DB771D"/>
</svg>
