<svg width="110" height="110" viewBox="0 0 110 110" fill="none" xmlns="http://www.w3.org/2000/svg">
<path d="M55 110C85.3757 110 110 85.3757 110 55C110 24.6243 85.3757 0 55 0C24.6243 0 0 24.6243 0 55C0 85.3757 24.6243 110 55 110Z" fill="#7584F2"/>
<path d="M107.891 70.1346L45.3096 7.55273L43.417 70.083L15.3784 86.6326L34.9934 106.248C41.194 108.67 47.9418 110 55.0001 110C80.1265 110 101.318 93.1506 107.891 70.1346Z" fill="#4253CE"/>
<path d="M87.4578 67.3876H62.4669V54.8923C62.4669 47.9913 68.0612 42.397 74.9622 42.397C81.8632 42.397 87.4578 47.9913 87.4578 54.8923V67.3876Z" fill="#FF6C52"/>
<path d="M87.4578 54.8923C87.4578 47.9913 81.8635 42.397 74.9625 42.397C74.9607 42.397 74.959 42.3972 74.9575 42.3972V67.3878H87.458V54.8923H87.4578Z" fill="#FF432E"/>
<path d="M79.0958 68.134V62.2432H70.829V68.134C70.829 69.1175 70.4472 70.037 69.8005 70.725L74.9624 81.1221L80.1242 70.725C79.4777 70.037 79.0958 69.1173 79.0958 68.134Z" fill="#E09380"/>
<path d="M80.1241 70.725C79.4774 70.037 79.0957 69.1175 79.0957 68.134V62.2432H74.9623V81.1118V81.1219L80.1241 70.725Z" fill="#D47F6C"/>
<path d="M93.8209 80.0675C93.1351 77.6263 91.3568 75.6402 89.0056 74.6902L81.4616 71.6416C80.9436 71.4323 80.4913 71.1154 80.1242 70.7246L74.9623 75.4151L69.8005 70.7246C69.4331 71.1154 68.9811 71.4323 68.4631 71.6416L60.9191 74.6902C58.568 75.6402 56.7898 77.6263 56.104 80.0675L54.2598 86.6327H95.6651L93.8209 80.0675Z" fill="#87C7FF"/>
<path d="M74.9573 86.6327H95.665L93.8208 80.0675C93.135 77.6263 91.3567 75.6402 89.0055 74.6902L81.4615 71.6416C80.9435 71.4323 80.4912 71.1154 80.1241 70.7246L74.9622 75.4151L74.9573 86.6327Z" fill="#65B1FC"/>
<path d="M74.9624 75.4149L72.0757 78.9523L67.0576 72.2094L69.8005 70.7246L74.9624 75.4149Z" fill="#DBEEFF"/>
<path d="M74.9624 75.4149L77.8493 78.9523L82.8671 72.2094L80.1242 70.7246L74.9624 75.4149Z" fill="#A3D4FF"/>
<path d="M77.8509 51.4756L65.5264 57.6968V59.7604C65.5264 64.9716 69.7508 69.1961 74.9621 69.1961C80.1733 69.1961 84.3978 64.9716 84.3978 59.7604V56.6735L77.8509 51.4756Z" fill="#FAA68E"/>
<path d="M74.9622 69.1963C80.1734 69.1963 84.3979 64.9719 84.3979 59.7606V56.6737L77.851 51.4756L74.957 52.9363L74.9622 69.1963Z" fill="#E09380"/>
<path d="M58.2069 81.1216H25.9666V45.6846C25.9666 36.7817 33.1838 29.5645 42.0867 29.5645C50.9896 29.5645 58.2069 36.7817 58.2069 45.6846V81.1216Z" fill="#FFCE00"/>
<path d="M58.2067 45.6846C58.2067 36.7817 50.9895 29.5645 42.0866 29.5645C42.0855 29.5645 42.0844 29.5645 42.0866 29.567V81.1242L58.2067 81.1216V45.6846Z" fill="#FDBA12"/>
<path d="M47.4191 62.7674V55.1675H36.7542V62.7672C36.7542 64.0358 36.2616 65.2222 35.4274 66.1097L42.0867 79.5228L48.746 66.1097C47.9119 65.2224 47.4191 64.036 47.4191 62.7674Z" fill="#E09380"/>
<path d="M48.746 66.1099C47.9117 65.2224 47.4191 64.036 47.4191 62.7674V55.1675H42.0867V79.5166V79.523L48.746 66.1099Z" fill="#D47F6C"/>
<path d="M66.4158 78.1632C65.5311 75.0136 63.237 72.4516 60.2038 71.2259L50.4714 67.293C49.803 67.0229 49.22 66.6141 48.746 66.1099L42.0867 72.1609L35.4274 66.1099C34.9535 66.6141 34.3702 67.0227 33.702 67.293L23.9696 71.2259C20.9364 72.4516 18.6423 75.0136 17.7576 78.1632L15.3784 86.633H68.795L66.4158 78.1632Z" fill="#A3D4FF"/>
<path d="M42.0837 86.633H68.7953L66.4161 78.1632C65.5313 75.0136 63.2372 72.4518 60.2041 71.2259L50.4717 67.293C49.8033 67.0229 49.2202 66.6141 48.7463 66.1099L42.087 72.1609L42.0837 86.633Z" fill="#65B1FC"/>
<path d="M42.0867 72.1609L38.3626 76.7244L31.8892 68.0256L35.4274 66.1099L42.0867 72.1609Z" fill="#DBEEFF"/>
<path d="M42.0867 72.1609L45.811 76.7244L52.2844 68.0256L48.746 66.1099L42.0867 72.1609Z" fill="#A3D4FF"/>
<path d="M49.916 19.3569L45.3091 23.9638V7.55273H38.8638V23.9638L34.2569 19.3569L29.6995 23.9144L42.0865 36.3016L54.4735 23.9144L49.916 19.3569Z" fill="#FF6C52"/>
<path d="M54.4735 23.9144L49.916 19.3569L45.3092 23.9638V7.55273H42.0835L42.0865 36.3016L54.4735 23.9144Z" fill="#FF432E"/>
<path d="M45.8135 41.2769L29.9138 49.3028V51.9651C29.9138 58.688 35.3638 64.1379 42.0867 64.1379C48.8095 64.1379 54.2595 58.688 54.2595 51.9651V47.9828L45.8135 41.2769Z" fill="#FAA68E"/>
<path d="M42.0867 64.1384C48.8096 64.1384 54.2596 58.6885 54.2596 51.9656V47.9835L45.8136 41.2773L42.0835 43.1602L42.0867 64.1384Z" fill="#E09380"/>
</svg>
