<svg width="110" height="110" viewBox="0 0 110 110" fill="none" xmlns="http://www.w3.org/2000/svg">
<path d="M55 110C85.3757 110 110 85.3757 110 55C110 24.6243 85.3757 0 55 0C24.6243 0 0 24.6243 0 55C0 85.3757 24.6243 110 55 110Z" fill="#7584F2"/>
<path d="M109.815 50.456L80.3823 21.0234L66.7111 38.1175L50.805 22.2113L31.0986 41.4983L58.7106 69.1102L47.7202 98.0731L59.4683 109.821C87.7544 107.547 110 83.8715 110 55.0001C110 53.47 109.937 51.9545 109.815 50.456Z" fill="#4253CE"/>
<path d="M59.7246 39.0432C57.8823 36.707 56.7827 33.7578 56.7827 30.5517C56.7827 22.9724 62.927 16.8281 70.5063 16.8281C78.0855 16.8281 84.2299 22.9724 84.2299 30.5517C84.2299 33.7585 83.1299 36.7085 81.2867 39.0449L59.7246 39.0432Z" fill="#E9EDF5"/>
<path d="M77.7786 41.4982H63.2339V25.5115C63.2339 21.4952 66.4898 18.2393 70.5061 18.2393C74.5226 18.2393 77.7784 21.4952 77.7784 25.5115V41.4982H77.7786Z" fill="#FDBA12"/>
<path d="M72.9117 32.658V29.2295H68.1005V32.658C68.1005 33.2303 67.8784 33.7655 67.502 34.166L70.5061 40.217L73.5103 34.166C73.1341 33.7655 72.9117 33.2303 72.9117 32.658Z" fill="#CC6D58"/>
<path d="M78.6796 36.4736L74.289 34.6992C73.9874 34.5774 73.7244 34.393 73.5107 34.1655L70.5065 36.8953L67.5023 34.1655C67.2886 34.393 67.0254 34.5774 66.724 34.6992L62.3334 36.4736C61.1492 36.952 60.2151 37.8821 59.7261 39.0446C62.2393 42.2303 66.134 44.2752 70.5065 44.2752C74.879 44.2752 78.7739 42.2303 81.2869 39.0446C80.7979 37.8821 79.8638 36.952 78.6796 36.4736Z" fill="#65B1FC"/>
<path d="M70.5062 36.8953L68.8261 38.9542L65.9058 35.0298L67.5021 34.1655L70.5062 36.8953Z" fill="#DBEEFF"/>
<path d="M70.5063 36.8953L72.1864 38.9542L75.107 35.0298L73.5105 34.1655L70.5063 36.8953Z" fill="#A3D4FF"/>
<path d="M72.1876 22.9629L65.0146 26.5837V27.7846C65.0146 30.8176 67.4733 33.2763 70.5063 33.2763C73.5392 33.2763 75.9979 30.8176 75.9979 27.7846V25.9881L72.1876 22.9629Z" fill="#D47F6C"/>
<path d="M28.8693 39.3052C26.931 36.9151 25.7695 33.869 25.7695 30.5519C25.7695 22.8714 31.9957 16.645 39.6764 16.645C47.3568 16.645 53.5832 22.8712 53.5832 30.5519C53.5832 33.869 52.4218 36.9149 50.4834 39.3052H28.8693Z" fill="white"/>
<path d="M42.0904 32.9241V29.4834H37.2618V32.9241C37.2618 33.4986 37.0388 34.0357 36.6611 34.4375L39.676 40.5103L42.6912 34.4375C42.3135 34.0357 42.0904 33.4986 42.0904 32.9241Z" fill="#E09380"/>
<path d="M47.8787 36.7537L43.4723 34.9731C43.1696 34.8509 42.9055 34.6659 42.6911 34.4375L39.676 37.1772L36.6611 34.4375C36.4465 34.6659 36.1824 34.8509 35.8799 34.9731L31.4735 36.7537C30.2948 37.23 29.3629 38.1517 28.8691 39.305C31.4189 42.449 35.3127 44.4587 39.6762 44.4587C44.0395 44.4587 47.9335 42.449 50.4833 39.305C49.9891 38.1517 49.0572 37.2298 47.8787 36.7537Z" fill="#A3D4FF"/>
<path d="M39.6759 33.5446C36.6322 33.5446 34.1646 31.0771 34.1646 28.0335V25.132C34.1646 22.0881 36.632 19.6206 39.6759 19.6206C42.7198 19.6206 45.1873 22.0881 45.1873 25.132V28.0335C45.1873 31.0771 42.7198 33.5446 39.6759 33.5446Z" fill="#FAA68E"/>
<path d="M39.6761 37.1772L37.99 39.2433L35.0591 35.3048L36.6612 34.4375L39.6761 37.1772Z" fill="#DBEEFF"/>
<path d="M39.6758 37.1772L41.3619 39.2433L44.2928 35.3048L42.6909 34.4375L39.6758 37.1772Z" fill="#DBEEFF"/>
<path d="M28.7905 58.6187V59.4651L47.7206 77.1083V98.073L62.2793 90.2338V77.1083L81.2094 59.4651V58.6187H28.7905Z" fill="#FFCE00"/>
<path d="M55.0259 58.6187V94.1394L62.2794 90.2338V77.1083L81.2095 59.4651V58.6187H55.0259Z" fill="#FDBA12"/>
<path d="M28.7905 47.959H81.2096V59.4652H28.7905V47.959Z" fill="#FDBA12"/>
<path d="M55.0259 47.959H81.2095V59.4652H55.0259V47.959Z" fill="#FFA300"/>
</svg>
