<svg width="110" height="110" viewBox="0 0 110 110" fill="none" xmlns="http://www.w3.org/2000/svg">
<path d="M55 110C85.3757 110 110 85.3757 110 55C110 24.6243 85.3757 0 55 0C24.6243 0 0 24.6243 0 55C0 85.3757 24.6243 110 55 110Z" fill="#7584F2"/>
<path d="M71.3565 107.527C91.9218 101.13 107.312 82.9881 109.682 60.9473L90.159 41.424L89.3076 42.2327L84.135 37.0601L81.1089 47.1256L71.0435 37.0601L68.683 41.3048L57.6978 30.3196L46.0383 40.8339L31.9168 26.7124L19.5869 31.0093L37.2954 48.718L25.6438 59.2251L49.1999 82.7812L47.754 83.9244L71.3565 107.527Z" fill="#4253CE"/>
<path d="M90.159 74.6807L80.9155 83.9241H90.159V74.6807Z" fill="#BEC3D2"/>
<path d="M47.7537 41.4238V83.924H68.9405L71.0889 62.9733L68.9405 41.4238H47.7537Z" fill="white"/>
<path d="M68.8906 41.4238V83.924H80.9154L90.1589 74.6806V41.4238H68.8906Z" fill="#E9EDF5"/>
<path d="M53.7778 37.0601H57.952V45.0288H53.7778V37.0601Z" fill="#FF6C52"/>
<path d="M79.9609 37.0601H84.1351V45.0288H79.9609V37.0601Z" fill="#FF432E"/>
<path d="M66.8694 37.0601V45.0288H68.9407L70.1754 41.2227L68.9407 37.0601H66.8694Z" fill="#FF6C52"/>
<path d="M68.8909 37.0601H71.0434V45.0288H68.8909V37.0601Z" fill="#FF432E"/>
<path d="M80.1887 50.5913H86.3925V56.7951H80.1887V50.5913Z" fill="#BEC3D2"/>
<path d="M70.6326 50.5913H76.8364V56.7951H70.6326V50.5913Z" fill="#BEC3D2"/>
<path d="M61.0762 50.5913H67.28V56.7951H61.0762V50.5913Z" fill="#DCE1EB"/>
<path d="M51.52 50.5913H57.7238V56.7951H51.52V50.5913Z" fill="#DCE1EB"/>
<path d="M80.1887 60.7427H86.3925V66.9465H80.1887V60.7427Z" fill="#BEC3D2"/>
<path d="M70.6326 60.7427H76.8364V66.9465H70.6326V60.7427Z" fill="#BEC3D2"/>
<path d="M61.0762 60.7427H67.28V66.9465H61.0762V60.7427Z" fill="#DCE1EB"/>
<path d="M51.52 60.7427H57.7238V66.9465H51.52V60.7427Z" fill="#DCE1EB"/>
<path d="M80.1887 70.5186H86.3925V76.7224H80.1887V70.5186Z" fill="#BEC3D2"/>
<path d="M70.6326 70.5186H76.8364V76.7224H70.6326V70.5186Z" fill="#BEC3D2"/>
<path d="M61.0762 70.5186H67.28V76.7224H61.0762V70.5186Z" fill="#DCE1EB"/>
<path d="M51.52 70.5186H57.7238V76.7224H51.52V70.5186Z" fill="#DCE1EB"/>
<path d="M41.3972 25.0229C30.657 25.0229 21.9504 33.7295 21.9504 44.4697C21.9504 55.21 30.6572 63.9165 41.3972 63.9165C41.4868 63.9165 41.5758 63.9144 41.6649 63.9131L43.8134 34.5006L41.6649 25.0262C41.5758 25.0251 41.4868 25.0229 41.3972 25.0229Z" fill="#FFCE00"/>
<path d="M41.3972 25.0229C52.1375 25.0229 60.844 33.7295 60.844 44.4697C60.844 55.21 52.1375 63.9165 41.3972 63.9165V25.0229Z" fill="#FDBA12"/>
<path d="M38.7336 30.3198V41.0964H31.6577V47.5417H41.6649L43.8134 38.4497L41.6649 30.3198H38.7336Z" fill="#636978"/>
<path d="M45.1789 47.5417H41.2896L41.3972 30.3198H45.1789V47.5417Z" fill="#414952"/>
<path d="M41.3972 61.7682C31.8588 61.7682 24.0988 54.0083 24.0988 44.4699C24.0988 40.6231 25.3333 36.9916 27.6197 34.0012V39.0423H31.9166V26.7124H19.5867V31.0093H24.5038C21.4539 34.8148 19.8019 39.4982 19.8019 44.4699C19.8019 56.3776 29.4895 66.0651 41.3972 66.0651C41.4868 66.0651 41.5757 66.0627 41.6649 66.0617L43.8133 63.9132L41.6649 61.7614C41.5755 61.7626 41.487 61.7682 41.3972 61.7682Z" fill="#414952"/>
<path d="M41.3972 22.8745V27.1714C50.9356 27.1714 58.6956 34.9313 58.6956 44.4697C58.6956 54.0079 50.9356 61.7681 41.3972 61.7681V66.065C53.3049 66.065 62.9925 56.3775 62.9925 44.4697C62.9925 32.562 53.3049 22.8745 41.3972 22.8745Z" fill="#23272B"/>
</svg>
