<svg width="110" height="110" viewBox="0 0 110 110" fill="none" xmlns="http://www.w3.org/2000/svg">
<path d="M55 110C85.3757 110 110 85.3757 110 55C110 24.6243 85.3757 0 55 0C24.6243 0 0 24.6243 0 55C0 85.3757 24.6243 110 55 110Z" fill="#7584F2"/>
<path d="M110 55C110 50.5317 109.463 46.1895 108.458 42.0301L88.2139 21.7863L19.6646 90.3356L35.9317 106.603C41.8727 108.799 48.2959 110 55.0001 110C85.3758 110 110 85.3757 110 55Z" fill="#4253CE"/>
<path d="M19.6645 90.3356C16.9282 87.5993 16.9282 83.1632 19.6645 80.427L42.9076 57.1839L50.9984 65.2747L30.1691 88.1936L19.6645 90.3356Z" fill="#537983"/>
<path d="M29.5731 90.3356L52.8162 67.0925L47.8619 62.1382L19.6646 90.3356C22.4008 93.0718 26.8369 93.0718 29.5731 90.3356Z" fill="#384949"/>
<path d="M65.7018 68.8662C79.2704 68.8662 90.2699 57.8668 90.2699 44.2982C90.2699 30.7296 79.2704 19.7302 65.7018 19.7302C52.1333 19.7302 41.1338 30.7296 41.1338 44.2982C41.1338 57.8668 52.1333 68.8662 65.7018 68.8662Z" fill="white"/>
<path d="M83.0739 61.6705C92.6684 52.0762 92.6684 36.5204 83.0739 26.9261L48.3296 61.6705C57.9241 71.2648 73.4796 71.2648 83.0739 61.6705Z" fill="#E0E0E0"/>
<path d="M87.7255 26.9262L82.5926 27.4072C73.2787 18.0933 58.1243 18.0935 48.8106 27.4072C39.4969 36.7211 39.4969 51.8757 48.8106 61.1894L49.6027 66.8104H43.1897C30.7766 54.3974 30.7766 34.1997 43.1897 21.7862H43.1899C55.6027 9.3732 75.8004 9.37299 88.2136 21.7862L87.7255 26.9262Z" fill="#FFCE00"/>
<path d="M88.2139 66.8102C100.627 54.3972 100.627 34.1995 88.2139 21.7863L82.5929 27.4072C91.9066 36.7211 91.9066 51.8756 82.5929 61.1892C78.0812 65.7012 72.0826 68.1858 65.7021 68.1858C59.3215 68.1858 53.3228 65.7012 48.8109 61.1892L43.1899 66.8102C49.2032 72.8235 57.1982 76.1351 65.7021 76.1351C74.2059 76.1351 82.2006 72.8235 88.2139 66.8102Z" fill="#FDBA12"/>
<path d="M68.3841 48.2099L72.7764 43.8175L68 40.013L65.7019 28.6631L61.7273 28.6632L61.7275 40.3237L50.0671 40.3235L50.0668 48.2727L61.7273 48.2727L61.7273 59.9333L65.7019 59.9332L67.9426 57.1921L68.3841 48.2099Z" fill="#FF6C52"/>
<path d="M69.6766 48.2727L81.3368 48.2727L81.337 40.3236L69.6764 40.3236L69.6764 28.6631H65.7019L65.7019 59.9331L69.6766 59.933L69.6766 48.2727Z" fill="#FF432E"/>
</svg>
