<svg width="110" height="110" viewBox="0 0 110 110" fill="none" xmlns="http://www.w3.org/2000/svg">
<path d="M55 110C85.3757 110 110 85.3757 110 55C110 24.6243 85.3757 0 55 0C24.6243 0 0 24.6243 0 55C0 85.3757 24.6243 110 55 110Z" fill="#7584F2"/>
<path d="M60.1799 109.759C88.1263 107.149 110 83.6289 110 55.0002C110 53.8894 109.967 52.7864 109.902 51.692L74.7194 16.48L73.9254 15.7153L38.106 58.2056L57.9502 78.0499L49.4688 99.0485L60.1799 109.759Z" fill="#4253CE"/>
<path d="M55.0001 68.6548L47.7506 69.7279L46.4811 92.0687C46.2029 96.9635 50.0973 101.085 55.0001 101.085C55.144 101.085 55.2869 101.081 55.4291 101.074V68.7184L55.0001 68.6548Z" fill="#FF6C52"/>
<path d="M63.519 92.0687L62.2495 69.7279L55 68.6548V68.7173V101.085C59.8905 101.07 63.7966 96.9549 63.519 92.0687Z" fill="#FF432E"/>
<path d="M48.3263 59.5977L47.7505 69.728H55.429V59.5977H48.3263Z" fill="#7584F2"/>
<path d="M61.6737 59.5977H55V69.728H62.2495L61.6737 59.5977Z" fill="#606AEA"/>
<path d="M55.0001 60.7125C68.5918 60.7125 79.61 49.6943 79.61 36.1026C79.61 22.5109 68.5918 11.4927 55.0001 11.4927C41.4084 11.4927 30.3901 22.5109 30.3901 36.1026C30.3901 49.6943 41.4084 60.7125 55.0001 60.7125Z" fill="white"/>
<path d="M79.6099 36.1029C79.6099 22.5198 68.5798 11.5073 55 11.4932V60.7124C68.5798 60.6984 79.6099 49.6859 79.6099 36.1029Z" fill="#E9EDF5"/>
<path d="M58.5485 38.9964V33.939H51.4511V38.9964C51.4511 39.8407 51.1233 40.6303 50.5681 41.2209L54.9999 50.147L59.4315 41.2209C58.8763 40.6301 58.5485 39.8407 58.5485 38.9964Z" fill="#E09380"/>
<path d="M58.5486 38.9969V33.9395H55V50.0953L59.4316 41.2214C58.8764 40.6305 58.5486 39.8412 58.5486 38.9969Z" fill="#D47F6C"/>
<path d="M71.1905 49.2421C70.6016 47.1461 69.0752 45.4413 67.0565 44.6255L60.5798 42.0083C60.1351 41.8285 59.7469 41.5565 59.4315 41.2209L54.9999 45.2475L50.5683 41.2207C50.2529 41.5563 49.8647 41.8283 49.42 42.0081L42.9433 44.6253C40.9248 45.4411 39.3981 47.1459 38.8093 49.2419L37.2261 54.8783L54.9999 60.7126L72.7737 54.8785L71.1905 49.2421Z" fill="#A3D4FF"/>
<path d="M71.1906 49.2424C70.602 47.1464 69.0753 45.4416 67.0566 44.6258L60.5799 42.0086C60.1352 41.8288 59.747 41.5568 59.4316 41.2212L55 45.2478V60.7043L72.7738 54.8788L71.1906 49.2424Z" fill="#65B1FC"/>
<path d="M54.9998 39.9088C50.5259 39.9088 46.8989 36.282 46.8989 31.8079V27.5433C46.8989 23.0694 50.5259 19.4424 54.9998 19.4424C59.4737 19.4424 63.1007 23.0692 63.1007 27.5433V31.8079C63.1007 36.2818 59.4737 39.9088 54.9998 39.9088Z" fill="#FAA68E"/>
<path d="M55 19.4424C59.4739 19.4424 63.1009 23.0692 63.1009 27.5433V31.8079C63.1009 36.2818 59.4741 39.9088 55 39.9088V19.4424Z" fill="#E09380"/>
<path d="M54.9999 45.2475L52.5215 48.2846L48.2136 42.4956L50.5683 41.2207L54.9999 45.2475Z" fill="#DBEEFF"/>
<path d="M55 45.2475L57.4784 48.2846L61.7863 42.4956L59.4316 41.2207L55 45.2475Z" fill="#A3D4FF"/>
<path d="M55.0001 63.9352C39.6531 63.9352 27.1675 51.4495 27.1675 36.1026C27.1675 20.7557 39.6531 8.27002 55.0001 8.27002C70.347 8.27002 82.8326 20.7557 82.8326 36.1026C82.8326 51.4495 70.347 63.9352 55.0001 63.9352ZM55.0001 14.7153C43.2071 14.7153 33.6128 24.3096 33.6128 36.1026C33.6128 47.8956 43.2071 57.4899 55.0001 57.4899C66.7931 57.4899 76.3873 47.8956 76.3873 36.1026C76.3873 24.3096 66.7931 14.7153 55.0001 14.7153Z" fill="#636978"/>
<path d="M82.8326 36.1027C82.8326 20.7643 70.3349 8.28447 55 8.27051V14.7158C66.781 14.7298 76.3873 24.3185 76.3873 36.1027C76.3873 47.887 66.781 57.4755 55 57.4897V63.935C70.3349 63.9208 82.8326 51.441 82.8326 36.1027Z" fill="#414952"/>
</svg>
