<svg width="110" height="110" viewBox="0 0 110 110" fill="none" xmlns="http://www.w3.org/2000/svg">
<g clip-path="url(#clip0_489_1813)">
<path d="M55 110C85.3757 110 110 85.3757 110 55C110 24.6243 85.3757 0 55 0C24.6243 0 0 24.6243 0 55C0 85.3757 24.6243 110 55 110Z" fill="#7584F2"/>
<path d="M110 55.0002C110 52.804 109.871 50.638 109.621 48.5091L101.606 40.4946L97.2606 42.5431L84.7791 30.0615L27.0525 91.2559L44.8648 109.068C48.1497 109.68 51.5376 110 55 110C85.3757 110 110 85.3758 110 55.0002Z" fill="#4253CE"/>
<path d="M27.0525 16.166H55.8418V91.2558H27.0525V16.166Z" fill="white"/>
<path d="M84.779 30.0612L70.8838 16.166H55.0258V91.2556H84.779V30.0612Z" fill="#E9EDF5"/>
<path d="M70.8838 30.0613H84.779L70.8838 16.166V30.0613Z" fill="#CDD2E1"/>
<path d="M37.0133 30.0269H51.6601V36.4722H37.0133V30.0269Z" fill="#CDD2E1"/>
<path d="M37.0132 45.7051H73.6902V52.1504H37.0132V45.7051Z" fill="#CDD2E1"/>
<path d="M55.0259 45.7051H73.6904V52.1504H55.0259V45.7051Z" fill="#AFB4C8"/>
<path d="M37.0133 57.7446H73.6904V64.1899H37.0133V57.7446Z" fill="#CDD2E1"/>
<path d="M55.0258 57.7446H73.6903V64.1899H55.0258V57.7446Z" fill="#AFB4C8"/>
<path d="M67.381 70.0299C62.8802 69.8458 60.4456 73.1164 58.6682 75.5028C57.0221 77.7127 56.1642 78.6875 54.8558 78.7461C54.08 78.7822 52.8197 77.0905 51.805 75.7325C50.3802 73.8253 48.7852 71.6949 46.3925 70.5666V79.2577C46.476 79.3692 46.5594 79.4805 46.6415 79.5902C48.5121 82.094 50.827 85.1929 54.7959 85.1929C54.9106 85.1929 55.0268 85.1904 55.1441 85.185C59.6434 84.9835 62.0672 81.7292 63.8371 79.353C65.4732 77.1567 66.1763 76.4355 67.1204 76.4703C69.3782 76.5616 73.6207 80.9167 75.8136 84.0231L81.0861 80.316C79.91 78.643 73.7223 70.2864 67.381 70.0299Z" fill="#CDD2E1"/>
<path d="M67.3809 70.0299C62.8801 69.8458 60.4455 73.1164 58.6681 75.5028C57.0948 77.615 56.2406 78.5964 55.0259 78.7306V85.1876C55.0654 85.1863 55.1043 85.1867 55.1443 85.1848C59.6435 84.9832 62.0674 81.729 63.8373 79.3528C65.4733 77.1565 66.1765 76.4353 67.1205 76.4701C69.3783 76.5614 73.6208 80.9165 75.8137 84.0229L81.0862 80.3158C79.9099 78.643 73.7222 70.2864 67.3809 70.0299Z" fill="#AFB4C8"/>
<path d="M83.7298 79.755L75.8076 84.03L74.7354 75.6595L92.6123 36.3989L101.606 40.4943L83.7298 79.755Z" fill="#555A66"/>
<path d="M101.606 40.4946L97.2524 38.5122L75.8136 84.023L83.7297 79.7553L101.606 40.4946Z" fill="#333940"/>
<path d="M88.1698 62.1304L96.0598 44.7877L101.925 47.456L94.035 64.7987L88.1698 62.1304Z" fill="#F2F6FC"/>
</g>
<defs>
<clipPath id="clip0_489_1813">
<rect width="110" height="110" fill="white"/>
</clipPath>
</defs>
</svg>
