<svg width="110" height="110" viewBox="0 0 110 110" fill="none" xmlns="http://www.w3.org/2000/svg">
<path d="M55 110C85.3757 110 110 85.3757 110 55C110 24.6243 85.3757 0 55 0C24.6243 0 0 24.6243 0 55C0 85.3757 24.6243 110 55 110Z" fill="#7584F2"/>
<path d="M97.1093 50.3801L79.1002 68.4811L41.7114 31.0923H20.3345L11.2805 44.5404L27.9073 80.5706L57.2897 109.953C84.0053 108.859 105.806 88.708 109.461 62.7315L97.1093 50.3801Z" fill="#4253CE"/>
<path d="M91.9329 60.5526L88.02 55.431L71.5492 68.0152L56.5993 55.3491L24.8394 74.6698L28.1892 80.1762L55.9788 63.2708L71.3404 76.2859L91.9329 60.5526Z" fill="white"/>
<path d="M30.4192 48.1203V44.5405H25.3957V48.1203C25.3957 48.7179 25.1637 49.2768 24.7708 49.6946L27.9075 56.0128L31.0442 49.6946C30.6512 49.2768 30.4192 48.7179 30.4192 48.1203Z" fill="#E09380"/>
<path d="M31.0442 49.6948C30.6512 49.2768 30.4192 48.7179 30.4192 48.1203V44.5405H27.9075V55.9969V56.0128L31.0442 49.6948Z" fill="#D47F6C"/>
<path d="M39.3673 55.3725C38.9505 53.889 37.8701 52.6822 36.4413 52.1047L31.857 50.2521C31.5423 50.1249 31.2675 49.9324 31.0443 49.6948L27.9075 52.5452L24.7708 49.6948C24.5476 49.9322 24.2728 50.1249 23.9581 50.2521L19.3737 52.1047C17.945 52.682 16.8644 53.8888 16.4478 55.3725L15.3271 59.3622L27.9078 63.4917L40.4884 59.3622L39.3673 55.3725Z" fill="#A3D4FF"/>
<path d="M27.8997 63.4887L27.9076 63.4912L40.4882 59.3617L39.3676 55.3723C38.9508 53.8888 37.8703 52.682 36.4414 52.1047L31.8571 50.2521C31.5423 50.1249 31.2675 49.9324 31.0443 49.6948L27.9076 52.5452L27.8997 63.4887Z" fill="#65B1FC"/>
<path d="M27.9076 48.7661C24.7408 48.7661 22.1738 46.1989 22.1738 43.0323V40.0137C22.1738 36.847 24.741 34.2798 27.9076 34.2798C31.0744 34.2798 33.6413 36.847 33.6413 40.0137V43.0323C33.6413 46.1991 31.0744 48.7661 27.9076 48.7661Z" fill="#FAA68E"/>
<path d="M27.9076 48.7658C31.0744 48.7658 33.6416 46.1987 33.6416 43.0321V40.0135C33.6416 36.8467 31.0744 34.2798 27.9079 34.2798C27.9053 34.2798 27.9027 34.28 27.8999 34.28L27.9076 48.7658Z" fill="#E09380"/>
<path d="M27.9075 52.5449L26.1533 54.6945L23.104 50.5972L24.7708 49.6948L27.9075 52.5449Z" fill="#DBEEFF"/>
<path d="M27.9075 52.5449L29.6617 54.6945L32.7109 50.5972L31.0442 49.6948L27.9075 52.5449Z" fill="#A3D4FF"/>
<path d="M27.9075 25.4131C17.0722 25.4131 8.28857 34.1968 8.28857 45.032C8.28857 61.8884 27.9075 80.5708 27.9075 80.5708C27.9075 80.5708 47.5264 61.0456 47.5264 45.032C47.5264 34.1968 38.7427 25.4131 27.9075 25.4131ZM27.9075 59.3973C20.2837 59.3973 14.1033 53.2169 14.1033 45.5931C14.1033 37.9694 20.2837 31.789 27.9075 31.789C35.5312 31.789 41.7116 37.9692 41.7116 45.5931C41.7116 53.2171 35.5312 59.3973 27.9075 59.3973Z" fill="#FFCE00"/>
<path d="M47.5262 45.032C47.5262 34.1968 38.7426 25.4131 27.9074 25.4131C27.9048 25.4131 27.902 25.4131 27.8994 25.4131V31.7892C27.902 31.7892 27.9046 31.789 27.9074 31.789C35.5311 31.789 41.7115 37.9694 41.7115 45.5931C41.7115 53.2169 35.5311 59.3971 27.9074 59.3971C27.9048 59.3971 27.9022 59.3969 27.8994 59.3969V80.563C27.9024 80.5658 27.9074 80.5706 27.9074 80.5706C27.9074 80.5706 47.5262 61.0456 47.5262 45.032Z" fill="#FDBA12"/>
<path d="M99.1573 56.7346C99.8292 52.8644 97.2365 49.1823 93.3663 48.5104C89.4961 47.8385 85.814 50.4313 85.1421 54.3015C84.4702 58.1717 87.063 61.8538 90.9332 62.5256C94.8034 63.1975 98.4855 60.6048 99.1573 56.7346Z" fill="#FFCE00"/>
<path d="M71.4449 79.2648C75.374 79.2648 78.5592 76.0796 78.5592 72.1505C78.5592 68.2213 75.374 65.0361 71.4449 65.0361C67.5158 65.0361 64.3306 68.2213 64.3306 72.1505C64.3306 76.0796 67.5158 79.2648 71.4449 79.2648Z" fill="#FFCE00"/>
<path d="M92.1631 48.3774C96.0922 48.3774 99.2774 51.5627 99.2774 55.4918C99.2774 59.4211 96.0922 62.6061 92.1631 62.6061V48.3774Z" fill="#FDBA12"/>
<path d="M71.4448 65.0361C75.3739 65.0361 78.5592 68.2214 78.5592 72.1505C78.5592 76.0795 75.3739 79.2648 71.4448 79.2648V65.0361Z" fill="#FDBA12"/>
<path d="M55.9158 65.6857C59.845 65.6857 63.0302 62.5005 63.0302 58.5714C63.0302 54.6422 59.845 51.457 55.9158 51.457C51.9867 51.457 48.8015 54.6422 48.8015 58.5714C48.8015 62.5005 51.9867 65.6857 55.9158 65.6857Z" fill="#FFCE00"/>
<path d="M55.9158 65.6857C59.8448 65.6857 63.0301 62.5004 63.0301 58.5714C63.0301 54.6423 59.8448 51.457 55.9158 51.457V65.6857Z" fill="#FDBA12"/>
</svg>
