<?xml version="1.0" standalone="no"?>
<!DOCTYPE svg PUBLIC "-//W3C//DTD SVG 20010904//EN"
 "http://www.w3.org/TR/2001/REC-SVG-20010904/DTD/svg10.dtd">
<svg version="1.0" xmlns="http://www.w3.org/2000/svg"
 width="78.000000pt" height="78.000000pt" viewBox="0 0 78.000000 78.000000"
 preserveAspectRatio="xMidYMid meet">
<metadata>
Created by potrace 1.14, written by Peter Selinger 2001-2017
</metadata>
<g transform="translate(0.000000,78.000000) scale(0.100000,-0.100000)"
fill="#000000" stroke="none">
<path d="M583 659 c-13 -5 -23 -14 -23 -22 0 -10 -24 -13 -104 -14 -139 -1
-173 -8 -222 -48 -61 -50 -77 -92 -79 -206 -1 -76 -5 -101 -18 -114 -33 -32
-15 -75 31 -75 14 0 30 7 36 15 8 11 38 15 122 16 123 1 168 15 216 63 47 48
60 88 61 202 0 77 4 104 13 104 23 0 36 37 22 60 -16 25 -28 29 -55 19z"/>
</g>
</svg>
