<svg width="80" height="80" viewBox="0 0 80 80" fill="none" xmlns="http://www.w3.org/2000/svg">
<g clip-path="url(#clip0_491_1699)">
<path d="M40 80C62.0914 80 80 62.0914 80 40C80 17.9086 62.0914 0 40 0C17.9086 0 0 17.9086 0 40C0 62.0914 17.9086 80 40 80Z" fill="#7584F2"/>
<path d="M29.7792 58.044L50.347 78.6118C67.3817 74.0692 80 58.5487 80 39.9998C80 39.6213 80 39.2427 80 38.8642L63.8486 23.9746L29.7792 58.044Z" fill="#4253CE"/>
<path d="M41.0095 48.9588C42.776 50.7253 42.776 53.7537 41.0095 55.5203L37.3502 59.1796C35.5836 60.9461 32.5552 60.9461 30.7886 59.1796L14.7634 43.0282C12.9968 41.2616 12.9968 38.2332 14.7634 36.4666L18.4227 32.8073C20.1893 31.0408 23.2177 31.0408 24.9842 32.8073L41.0095 48.9588Z" fill="white"/>
<path d="M55.0157 21.0725C56.7823 19.3059 59.8107 19.3059 61.5772 21.0725L65.2365 24.7318C67.0031 26.4983 67.0031 29.5267 65.2365 31.2933L37.4763 58.9274C35.7097 60.6939 32.6813 60.6939 30.9148 58.9274L27.2555 55.2681C25.4889 53.5015 25.4889 50.4731 27.2555 48.7066L55.0157 21.0725Z" fill="white"/>
</g>
<defs>
<clipPath id="clip0_491_1699">
<rect width="80" height="80" fill="white"/>
</clipPath>
</defs>
</svg>
