<svg width="273" height="49" viewBox="0 0 273 49" fill="none" xmlns="http://www.w3.org/2000/svg">
<path d="M77.0599 29.2697H76.9199C75.3799 29.2697 73.5599 28.3697 72.8099 26.8797C72.7399 26.7397 72.6899 26.5697 72.6899 26.4297C72.6899 25.8997 73.1399 25.5397 73.6299 25.5397C73.9199 25.5397 74.2299 25.6397 74.4499 25.9497C75.0499 26.7397 76.0899 27.4597 76.9699 27.4597H77.0899C78.5499 27.4597 79.3899 26.6397 79.3899 25.8397C79.4299 22.6497 73.1499 25.0697 73.1399 20.5097C73.1399 18.1997 75.5599 17.4297 77.0699 17.4297H77.1699C78.8299 17.4297 79.9099 18.1397 80.3199 18.4497C80.5599 18.6397 80.6599 18.8797 80.6599 19.1397C80.6599 19.5697 80.2999 20.0097 79.7999 20.0097C79.6299 20.0097 79.4599 19.9597 79.2699 19.8697C78.7699 19.6297 78.2399 19.2197 77.1599 19.2297H77.0599C75.7199 19.2297 74.9999 19.8397 74.9799 20.5297C74.9399 23.1497 81.2199 21.0197 81.2299 25.7897V25.8897C81.1999 28.0897 79.0699 29.2697 77.0599 29.2697Z" fill="#E30613"/>
<path d="M97.4701 18.5201L94.6601 28.5601C94.5701 28.8701 94.2801 29.2301 93.7801 29.2301H93.5901C93.1601 29.2301 92.7701 28.8501 92.6801 28.5401C92.1001 26.4801 90.5501 20.7201 90.4001 20.3601C90.2801 20.7501 88.7601 26.5101 88.2101 28.5501C88.1401 28.8601 87.7801 29.2501 87.3201 29.2501H87.1001C86.6001 29.2501 86.3101 28.8901 86.2101 28.5801L83.3701 18.5601C83.3501 18.4601 83.3201 18.3901 83.3201 18.2901C83.3201 17.7901 83.7001 17.4001 84.2501 17.4001C84.6101 17.4001 84.9701 17.5901 85.1201 18.0701L87.2001 25.3601L89.3401 18.0301C89.4601 17.6201 89.7901 17.3801 90.3701 17.3801H90.3901C91.1101 17.3801 91.3301 17.6701 91.4301 18.0301L93.6301 25.3701L95.7001 18.0401C95.8401 17.5601 96.1801 17.3701 96.5401 17.3701C97.0901 17.3701 97.4801 17.7501 97.4801 18.2501C97.5001 18.3501 97.5001 18.4201 97.4701 18.5201Z" fill="#E30613"/>
<path d="M101.35 14.6898C100.89 14.6898 100.44 14.3798 100.44 13.7798V13.2498C100.44 12.6498 100.89 12.3398 101.35 12.3398C101.81 12.3398 102.26 12.6498 102.26 13.2498V13.7798C102.26 14.3798 101.8 14.6898 101.35 14.6898ZM101.39 29.2098C100.93 29.2098 100.48 28.8998 100.47 28.2998L100.45 18.2698C100.45 17.6698 100.9 17.3598 101.36 17.3598C101.82 17.3598 102.27 17.6698 102.28 18.2698L102.3 28.2998C102.3 28.8998 101.84 29.2098 101.39 29.2098Z" fill="#E30613"/>
<path d="M109.63 29.1898H109.49C107.95 29.1898 106.13 28.2898 105.38 26.7998C105.31 26.6598 105.26 26.4898 105.26 26.3398C105.26 25.8098 105.71 25.4498 106.19 25.4498C106.48 25.4498 106.79 25.5398 107.01 25.8598C107.61 26.6498 108.65 27.3698 109.53 27.3698H109.65C111.11 27.3698 111.95 26.5498 111.95 25.7598C111.99 22.5698 105.71 24.9798 105.69 20.4198C105.68 18.1098 108.11 17.3398 109.62 17.3398H109.72C111.38 17.3398 112.46 18.0498 112.87 18.3598C113.11 18.5498 113.21 18.7898 113.21 19.0498C113.21 19.4798 112.85 19.9198 112.35 19.9198C112.18 19.9198 112.01 19.8698 111.82 19.7798C111.31 19.5398 110.79 19.1298 109.71 19.1398H109.61C108.27 19.1398 107.55 19.7498 107.53 20.4398C107.49 23.0598 113.77 20.9298 113.78 25.7098V25.8098C113.78 27.9998 111.65 29.1798 109.63 29.1898Z" fill="#E30613"/>
<path d="M120.66 29.1605H120.52C118.98 29.1605 117.16 28.2605 116.41 26.7705C116.34 26.6305 116.29 26.4605 116.29 26.3105C116.29 25.7805 116.75 25.4205 117.22 25.4205C117.51 25.4205 117.82 25.5105 118.04 25.8305C118.64 26.6205 119.68 27.3405 120.56 27.3405H120.68C122.14 27.3405 122.98 26.5205 122.98 25.7305C123.02 22.5405 116.74 24.9505 116.73 20.3905C116.73 18.0805 119.15 17.3105 120.66 17.3105H120.76C122.42 17.3105 123.5 18.0205 123.91 18.3305C124.15 18.5205 124.25 18.7605 124.25 19.0305C124.25 19.4605 123.89 19.8905 123.39 19.9005C123.22 19.9005 123.05 19.8505 122.86 19.7605C122.36 19.5205 121.83 19.1105 120.75 19.1205H120.66C119.31 19.1205 118.6 19.7305 118.57 20.4205C118.53 23.0405 124.81 20.9105 124.82 25.6905V25.7905C124.81 27.9705 122.68 29.1605 120.66 29.1605Z" fill="#E30613"/>
<path d="M147.13 29.0897C146.67 29.0897 146.22 28.7797 146.21 28.1797L146.19 21.0697C146.18 19.7497 145.37 19.0597 144.14 19.0597H143.93C142.78 19.0597 141.87 19.9497 141.87 21.1297L141.89 28.1397C141.89 28.7597 141.44 29.0997 140.98 29.0997C140.52 29.0997 140.07 28.7697 140.06 28.1397L140.04 21.1297C140.04 19.9297 139.12 19.0697 137.97 19.0697H137.75C136.67 19.0697 135.69 19.8197 135.69 20.9197L135.71 28.1897C135.71 28.7897 135.26 29.0997 134.8 29.0997C134.34 29.0997 133.89 28.7897 133.88 28.1897L133.85 18.1597C133.85 17.5797 134.3 17.2497 134.78 17.2497C135.16 17.2497 135.57 17.4897 135.67 17.9697C136.1 17.5397 136.89 17.2497 137.73 17.2397H137.95C139.15 17.2397 140.21 17.7597 140.93 18.5997C141.65 17.7597 142.7 17.2297 143.9 17.2197H144.12C146.16 17.2197 147.99 18.4097 148 21.0497L148.02 28.1597C148.04 28.7797 147.59 29.0897 147.13 29.0897Z" fill="#E30613"/>
<path d="M159.34 29.06L159.17 29.04C158.35 28.92 157.85 28.56 157.54 28.11C156.85 28.71 155.94 29.07 154.95 29.08H154.74C152.79 29.08 150.87 27.87 150.87 25.63V25.34C151.03 21.55 156.36 22.2 156.93 21.39C157 21.29 157 21.1 157 20.98C157 19.56 156.11 19.04 155.05 19.04H154.88C153.9 19.04 153.39 19.45 152.94 20.24C152.75 20.58 152.44 20.72 152.13 20.72C151.67 20.72 151.22 20.39 151.21 19.88C151.21 19.74 151.23 19.59 151.31 19.45C152.07 17.72 153.61 17.21 154.88 17.21H155.05C157.19 17.2 158.82 18.83 158.83 20.9L158.84 26.47C158.84 26.9 159.03 27.19 159.47 27.26C160 27.35 160.24 27.74 160.24 28.12C160.23 28.6 159.92 29.06 159.34 29.06ZM157 23.31C155.23 23.79 152.75 23.7 152.69 25.38V25.57C152.69 26.6 153.51 27.25 154.74 27.25H154.96C156.09 27.25 157.02 26.33 157.02 25.2L157 23.31Z" fill="#E30613"/>
<path d="M169.56 29.0397C169.15 29.0397 168.72 28.7997 168.67 28.3197C168.33 28.6597 167.64 29.0397 166.61 29.0497H166.39C164.23 29.0597 162.5 27.3297 162.49 25.1997L162.48 21.0697C162.47 18.9297 164.2 17.1997 166.36 17.1997H166.53C167.37 17.1997 168.21 17.4797 168.62 17.9897L168.61 13.0897C168.61 12.4897 169.06 12.1797 169.52 12.1797C169.98 12.1797 170.43 12.4897 170.44 13.0897L170.48 28.1897C170.47 28.7497 170.02 29.0397 169.56 29.0397ZM168.63 20.8497C168.63 19.7497 167.67 19.0097 166.59 19.0097H166.38C165.23 19.0097 164.32 19.9297 164.32 21.0597L164.33 25.1897C164.33 26.3197 165.25 27.2297 166.38 27.2297H166.62C167.7 27.2297 168.66 26.4997 168.66 25.3297L168.63 20.8497Z" fill="#E30613"/>
<path d="M180.89 23.9195L175.66 23.9295V25.1495C175.66 26.2795 176.58 27.1895 177.7 27.1895H177.94C178.87 27.1895 179.5 26.6295 179.81 25.9595C179.98 25.5495 180.29 25.3795 180.6 25.3795C181.08 25.3795 181.54 25.7895 181.54 26.3095C181.54 26.4295 181.52 26.5695 181.45 26.7195C180.88 28.0595 179.56 28.9995 177.95 29.0095H177.71C175.57 29.0195 173.84 27.2895 173.83 25.1595L173.82 21.0295C173.81 18.8895 175.54 17.1595 177.67 17.1495H177.91C180.05 17.1395 181.78 18.7995 181.79 21.0295V22.9995C181.8 23.4795 181.39 23.9195 180.89 23.9195ZM179.97 21.0395C179.97 19.8595 179 18.9795 177.95 18.9795H177.71C176.58 18.9795 175.65 19.8995 175.65 21.0295V22.2295L179.97 22.2195V21.0395Z" fill="#E30613"/>
<path d="M194.79 28.9704H194.65C193.11 28.9704 191.29 28.0704 190.54 26.5804C190.47 26.4404 190.42 26.2704 190.42 26.1204C190.42 25.5904 190.88 25.2304 191.35 25.2304C191.64 25.2304 191.95 25.3204 192.17 25.6404C192.77 26.4304 193.81 27.1504 194.7 27.1504H194.82C196.28 27.1504 197.12 26.3304 197.12 25.5304C197.16 22.3404 190.88 24.7504 190.86 20.1904C190.85 17.8804 193.28 17.1104 194.79 17.1104H194.89C196.55 17.1104 197.63 17.8204 198.04 18.1304C198.28 18.3204 198.38 18.5604 198.38 18.8204C198.38 19.2504 198.02 19.6904 197.52 19.6904C197.35 19.6904 197.18 19.6404 196.99 19.5504C196.48 19.3104 195.96 18.9004 194.88 18.9104H194.78C193.44 18.9104 192.72 19.5203 192.7 20.2104C192.66 22.8303 198.94 20.7004 198.95 25.4804V25.5804C198.94 27.7804 196.81 28.9704 194.79 28.9704Z" fill="#E30613"/>
<path d="M205.78 28.9399H205.54C203.4 28.9499 201.67 27.2199 201.66 25.0899L201.65 20.9599C201.64 18.8199 203.37 17.0899 205.5 17.0899H205.74C207.88 17.0799 209.61 18.8099 209.62 20.9399L209.63 25.0699C209.64 27.2099 207.91 28.9399 205.78 28.9399ZM207.8 20.9499C207.8 19.8199 206.88 18.9099 205.75 18.9099H205.51C204.38 18.9099 203.47 19.8299 203.48 20.9599L203.49 25.0899C203.49 26.2199 204.41 27.1299 205.56 27.1299H205.78C206.91 27.1299 207.82 26.2099 207.81 25.0799L207.8 20.9499Z" fill="#E30613"/>
<path d="M216.55 13.87C215.78 13.87 215.28 14.47 215.28 15.22L215.29 17.14H216.42C217.04 17.14 217.33 17.59 217.33 18.05C217.33 18.51 217.02 18.96 216.42 18.96H215.29L215.31 28.01C215.31 28.61 214.86 28.92 214.4 28.92C213.94 28.92 213.49 28.61 213.49 28.01L213.47 18.96H212.94C212.34 18.96 212.03 18.51 212.03 18.05C212.03 17.59 212.34 17.14 212.94 17.14H213.47L213.46 15.22C213.45 13.39 214.77 12.05 216.55 12.04C217.15 12.04 217.46 12.49 217.46 12.95C217.47 13.41 217.15 13.87 216.55 13.87Z" fill="#E30613"/>
<path d="M224.53 28.9003C222.78 28.9003 221.38 27.4903 221.38 25.7403L221.36 18.9503H220.52C219.92 18.9503 219.61 18.5003 219.61 18.0403C219.61 17.5803 219.92 17.1303 220.52 17.1203H221.36L221.35 12.9403C221.35 12.3403 221.8 12.0303 222.26 12.0303C222.72 12.0303 223.17 12.3403 223.17 12.9403L223.18 17.1203H224.48C225.08 17.1203 225.39 17.5703 225.39 18.0303C225.39 18.4903 225.08 18.9403 224.48 18.9503H223.18L223.2 25.7203C223.2 26.5603 223.85 27.0403 224.6 27.0903C225.18 27.1103 225.44 27.5703 225.44 28.0003C225.44 28.4403 225.15 28.8903 224.53 28.9003Z" fill="#E30613"/>
<path d="M241.92 18.1495L239.11 28.1895C239.01 28.4995 238.73 28.8595 238.22 28.8595H238.03C237.6 28.8595 237.21 28.4795 237.12 28.1695C236.54 26.1095 234.99 20.3495 234.84 19.9895C234.72 20.3695 233.2 26.1395 232.65 28.1795C232.58 28.4895 232.22 28.8795 231.76 28.8795H231.54C231.04 28.8795 230.75 28.5195 230.65 28.2095L227.82 18.1795C227.8 18.0795 227.77 18.0095 227.77 17.9095C227.77 17.4095 228.15 17.0195 228.7 17.0195C229.06 17.0195 229.42 17.2095 229.56 17.6895L231.64 24.9795L233.78 17.6495C233.9 17.2395 234.23 16.9995 234.81 16.9995H234.83C235.55 16.9995 235.77 17.2795 235.86 17.6395L238.06 24.9795L240.13 17.6495C240.27 17.1695 240.61 16.9795 240.97 16.9795C241.52 16.9795 241.91 17.3595 241.91 17.8595C241.94 17.9795 241.94 18.0495 241.92 18.1495Z" fill="#E30613"/>
<path d="M252.66 28.8205L252.49 28.8005C251.67 28.6805 251.17 28.3205 250.86 27.8705C250.16 28.4705 249.25 28.8305 248.27 28.8405H248.05C246.11 28.8505 244.18 27.6305 244.18 25.3905V25.1005C244.34 21.3105 249.67 21.9705 250.24 21.1505C250.31 21.0505 250.31 20.8605 250.31 20.7405C250.31 19.3205 249.42 18.8005 248.36 18.8005H248.19C247.2 18.8005 246.7 19.2105 246.25 20.0105C246.06 20.3505 245.75 20.4905 245.44 20.4905C244.98 20.4905 244.53 20.1605 244.52 19.6505C244.52 19.5105 244.54 19.3605 244.62 19.2205C245.38 17.4905 246.92 16.9805 248.19 16.9805H248.36C250.5 16.9705 252.13 18.6005 252.14 20.6705L252.16 26.2405C252.16 26.6705 252.35 26.9605 252.79 27.0305C253.32 27.1205 253.56 27.5105 253.56 27.8905C253.54 28.3705 253.24 28.8205 252.66 28.8205ZM250.32 23.0705C248.54 23.5505 246.07 23.4705 246 25.1405V25.3305C246 26.3605 246.82 27.0105 248.04 27.0105H248.26C249.39 27.0105 250.32 26.0905 250.32 24.9605V23.0705Z" fill="#E30613"/>
<path d="M261.5 19.61C261.26 19.61 261 19.51 260.76 19.28C260.57 19.09 260.25 18.78 259.65 18.78C258.23 18.78 258.04 19.6 258.04 20.39L258.06 27.85C258.06 28.5 257.61 28.81 257.15 28.81C256.69 28.81 256.24 28.5 256.23 27.85L256.2 17.87C256.2 17.29 256.68 16.96 257.13 16.96C257.44 16.96 257.75 17.1 257.92 17.44C257.92 17.44 258.4 16.96 259.65 16.96C260.56 16.96 261.57 17.29 262.15 18.13C262.32 18.37 262.37 18.56 262.37 18.75C262.39 19.25 261.98 19.61 261.5 19.61Z" fill="#E30613"/>
<path d="M271.75 23.6897L266.52 23.6997V24.9197C266.52 26.0497 267.44 26.9597 268.57 26.9597H268.81C269.75 26.9597 270.37 26.3997 270.68 25.7297C270.85 25.3197 271.16 25.1497 271.47 25.1497C271.95 25.1497 272.41 25.5597 272.41 26.0797C272.41 26.1997 272.39 26.3397 272.32 26.4897C271.75 27.8397 270.43 28.7697 268.82 28.7797H268.58C266.44 28.7797 264.71 27.0597 264.7 24.9297L264.69 20.7997C264.69 18.6597 266.41 16.9297 268.54 16.9297H268.78C270.92 16.9197 272.65 18.5797 272.66 20.8097V22.7797C272.66 23.2497 272.25 23.6897 271.75 23.6897ZM270.83 20.8097C270.83 19.6297 269.86 18.7497 268.81 18.7497H268.57C267.44 18.7497 266.51 19.6697 266.51 20.7997V21.9997L270.83 21.9897V20.8097Z" fill="#E30613"/>
<path d="M44.18 8.30988H28.72C28.23 7.08988 27.7299 5.84988 27.7299 5.84988C27.25 4.65988 26.1 3.87988 24.82 3.87988H11.62C10.37 3.87988 9.22995 4.62988 8.73995 5.77988L5.70995 12.8299C5.53995 13.2199 5.44995 13.6399 5.44995 14.0699V33.9599C5.44995 35.6899 6.85995 37.0999 8.58995 37.0999H44.18C45.91 37.0999 47.32 35.6899 47.32 33.9599V11.4599C47.32 9.71988 45.91 8.30988 44.18 8.30988Z" fill="#E30613"/>
<path d="M32.2801 23.8692H28.0001V28.1492C28.0001 29.1692 27.2301 29.6992 26.4501 29.6992C25.6801 29.6992 24.9001 29.1692 24.9001 28.1492V23.8692H20.6201C19.6001 23.8692 19.0701 23.0992 19.0701 22.3192C19.0701 21.5492 19.6001 20.7692 20.6201 20.7692H24.9001V16.4992C24.9001 15.4792 25.6701 14.9492 26.4501 14.9492C27.2201 14.9492 28.0001 15.4792 28.0001 16.4992V20.7792H32.2801C33.3001 20.7792 33.8301 21.5492 33.8301 22.3292C33.8301 23.0892 33.3001 23.8692 32.2801 23.8692Z" fill="white"/>
</svg>
