<svg width="175" height="202" viewBox="0 0 175 202" fill="none" xmlns="http://www.w3.org/2000/svg">
<g clip-path="url(#clip0_593_3116)">
<path d="M110.68 135.87C101.077 130.65 103.693 105.442 103.693 105.442L89.3114 106.367V105.442L87.7713 105.905L86.2312 105.442V106.367L71.8498 105.442C71.8498 105.442 74.4657 130.65 64.863 135.87C55.2603 141.089 -1.49525 143.693 4.60835 201.932H86.2312H89.3114H170.934C177.049 143.693 120.294 141.089 110.68 135.87Z" fill="#FFAD9D"/>
<path d="M69.834 129.376C81.3278 127.673 92.8102 125.915 104.281 124.1C102.662 115.408 103.704 105.453 103.704 105.453L89.3225 106.378V105.453L87.7824 105.915L86.2424 105.453V106.378L71.861 105.453C71.8496 105.442 73.3671 120.097 69.834 129.376Z" fill="#E08880"/>
<path d="M119.908 138.801C112.095 145.745 100.601 150.142 87.7708 150.142C74.9521 150.142 63.4583 145.745 55.6335 138.801C36.7339 143.863 -0.397303 154.257 4.60787 201.944H86.2308H89.3109H170.934C175.939 154.257 138.808 143.863 119.908 138.801Z" fill="#FFBC7E"/>
<path d="M4.20134 192.034C4.13339 195.146 4.25796 198.427 4.62032 201.933H170.935C173.109 181.234 167.334 167.571 158.569 158.315C106.66 167.346 55.2836 179.126 4.20134 192.034Z" fill="#FFA755"/>
<path d="M53.0754 136.613L62.8932 202H0.237919C0.237919 202 -6.55644 146.387 53.0754 136.613Z" fill="#2D5B79"/>
<path d="M121.925 136.613L112.107 202H174.763C174.763 202 181.557 146.387 121.925 136.613Z" fill="#2D5B79"/>
<path d="M59.6543 68.5447C56.8233 59.8078 50.1196 61.8257 49.4968 62.0399C48.84 62.1188 41.9097 63.1447 43.1101 72.2424C44.3104 81.4078 49.6553 86.3682 54.6605 84.9139C59.8015 84.0909 62.4966 77.3381 59.6543 68.5447Z" fill="#E08880"/>
<path d="M116.16 68.5447C118.991 59.8078 125.695 61.8257 126.317 62.0399C126.974 62.1188 133.904 63.1447 132.704 72.2424C131.504 81.4078 126.159 86.3682 121.154 84.9139C116.001 84.0909 113.306 77.3381 116.16 68.5447Z" fill="#E08880"/>
<path d="M52.7806 55.2982C56.291 16.9795 85.552 19.1215 88.3037 19.4146C91.0668 19.1215 120.328 16.9795 123.827 55.2982C127.36 93.8423 110.114 119.016 88.3037 117.641C66.5052 119.027 49.2588 93.8536 52.7806 55.2982Z" fill="#FFAD9D"/>
<path d="M52.024 61.4427C52.024 61.4427 50.1309 112.294 79.9891 117.986C109.836 123.678 128.358 98.6335 125.706 58.7903L121.931 58.4146C121.931 58.4146 119.471 98.6335 110.403 99.0206C101.334 99.3963 114.744 86.4984 97.3666 85.7357C79.9891 84.973 71.3853 79.1559 69.9683 93.8979C69.0275 103.768 56.9323 86.8741 55.4247 60.6914C53.917 34.4973 52.024 61.4427 52.024 61.4427Z" fill="#75403E"/>
<path d="M56.8525 72.3701C56.1724 68.75 55.6623 64.834 55.4242 60.6903C53.9166 34.5076 52.0235 61.453 52.0235 61.453C52.0235 61.453 51.8195 66.9742 52.613 74.5785C54.0299 73.8386 55.4469 73.0986 56.8525 72.3701Z" fill="#5F3433"/>
<path d="M125.74 72.7014C126.035 68.2958 126.035 63.6512 125.706 58.779L121.931 58.4033C121.931 58.4033 121.591 63.9131 120.707 70.8686C122.385 71.4719 124.062 72.0866 125.74 72.7014Z" fill="#5F3433"/>
<path d="M93.8529 58.6309C94.3403 60.4067 94.7144 62.194 95.0544 63.9926C95.3945 65.7799 95.6779 67.5785 95.9273 69.3885C96.0633 70.2879 96.154 71.1986 96.2673 72.0979C96.3807 72.9972 96.4714 73.9079 96.5621 74.8072C96.7548 76.6172 96.8795 78.4273 96.9928 80.2487L97.0268 80.7382L96.6754 80.9545C95.5192 81.6716 94.3516 82.3547 93.1727 83.0263C91.9825 83.6866 90.7922 84.3468 89.5566 84.9388C90.5542 83.9939 91.5971 83.1174 92.6399 82.2408C93.6942 81.3757 94.7597 80.5333 95.8366 79.7022L95.5192 80.408C95.2245 78.6094 94.9637 76.8108 94.7484 75.0007C94.635 74.1014 94.5217 73.1907 94.4423 72.2914C94.363 71.3807 94.2496 70.4814 94.1929 69.5707C94.0456 67.7607 93.9322 65.9392 93.8642 64.1178C93.7848 62.2964 93.7622 60.4636 93.8529 58.6309Z" fill="#E08880"/>
<path d="M116.434 55.762C116.434 55.762 116.128 55.5912 115.595 55.2952C115.334 55.1473 115.017 54.9765 114.665 54.783C114.314 54.5894 113.917 54.3845 113.475 54.1569C113.022 53.9633 112.58 53.7015 112.069 53.508C111.82 53.3941 111.571 53.2917 111.321 53.1779C111.061 53.0868 110.8 52.9843 110.528 52.8933C110.006 52.6656 109.44 52.5745 108.895 52.381C108.329 52.3241 107.785 52.1078 107.218 52.1305L106.379 52.0622C106.107 52.0964 105.824 52.1078 105.551 52.1192C104.996 52.0964 104.475 52.3013 103.942 52.3696C103.409 52.4607 102.922 52.7111 102.423 52.8477L102.049 52.9616L101.709 53.1323C101.482 53.2348 101.255 53.3486 101.04 53.4511C100.609 53.6674 100.178 53.8153 99.8496 54.043C99.5096 54.2593 99.1922 54.4187 98.9314 54.5667C98.3987 54.8513 98.0586 54.9993 98.0586 54.9993C98.0586 54.9993 98.1946 54.6805 98.4893 54.1341C98.6367 53.8609 98.8181 53.5307 99.0561 53.1665C99.2715 52.7794 99.6002 52.4151 99.9857 52.0281C100.382 51.6524 100.734 51.1515 101.289 50.8214C101.833 50.4913 102.366 50.0359 103.035 49.7855C103.364 49.6489 103.715 49.5237 104.066 49.4098C104.418 49.2618 104.781 49.1935 105.166 49.148C105.54 49.0911 105.926 49.0342 106.322 49C106.708 49 107.093 49.0342 107.49 49.0569C108.272 49.0683 108.998 49.3301 109.734 49.5123C110.086 49.6375 110.414 49.7855 110.755 49.9335C111.095 50.0701 111.412 50.2294 111.695 50.423C111.99 50.6051 112.285 50.7759 112.557 50.958C112.818 51.1629 113.067 51.3564 113.305 51.5614C113.804 51.937 114.178 52.3924 114.552 52.768C115.255 53.5763 115.742 54.3162 116.026 54.874C116.32 55.4091 116.434 55.762 116.434 55.762Z" fill="#352836"/>
<path d="M79.9435 55.762C79.9435 55.762 79.6374 55.5912 79.1046 55.2952C78.8439 55.1473 78.5265 54.9765 78.1751 54.783C77.8237 54.5894 77.427 54.3845 76.9849 54.1569C76.5314 53.9633 76.0894 53.7015 75.5792 53.508C75.3299 53.3941 75.0805 53.2917 74.8311 53.1779C74.5704 53.0868 74.3097 52.9843 74.0376 52.8933C73.5162 52.6656 72.9494 52.5745 72.4053 52.381C71.8385 52.3241 71.2944 52.1078 70.7276 52.1305L69.8887 52.0622C69.6167 52.0964 69.3333 52.1078 69.0612 52.1192C68.5058 52.0964 67.9844 52.3013 67.4516 52.3696C66.9188 52.4607 66.4314 52.7111 65.9326 52.8477L65.5585 52.9616L65.2184 53.1323C64.9917 53.2348 64.765 53.3486 64.5496 53.4511C64.1189 53.6674 63.6881 53.8153 63.3594 54.043C63.0193 54.2593 62.7019 54.4187 62.4412 54.5667C61.9084 54.8513 61.5684 54.9993 61.5684 54.9993C61.5684 54.9993 61.7044 54.6805 61.9991 54.1341C62.1465 53.8609 62.3279 53.5307 62.5659 53.1665C62.7813 52.7794 63.11 52.4151 63.4954 52.0281C63.8922 51.6524 64.2436 51.1515 64.799 50.8214C65.3431 50.4913 65.8759 50.0359 66.5447 49.7855C66.8735 49.6489 67.2249 49.5237 67.5763 49.4098C67.9277 49.2618 68.2904 49.1935 68.6758 49.148C69.0499 49.0911 69.4353 49.0342 69.8321 49C70.2175 49 70.6029 49.0342 70.9996 49.0569C71.7818 49.0683 72.5073 49.3301 73.2441 49.5123C73.5955 49.6375 73.9242 49.7855 74.2643 49.9335C74.6044 50.0701 74.9218 50.2294 75.2052 50.423C75.4999 50.6051 75.7946 50.7759 76.0667 50.958C76.3274 51.1629 76.5768 51.3564 76.8148 51.5614C77.3136 51.937 77.6877 52.3924 78.0618 52.768C78.7646 53.5763 79.252 54.3162 79.5354 54.874C79.8301 55.4091 79.9435 55.762 79.9435 55.762Z" fill="#352836"/>
<path d="M78.7872 69.776C78.7872 69.776 78.7079 69.4573 78.5265 68.9336C78.3451 68.41 78.0731 67.67 77.6423 66.8618C77.2002 66.0535 76.5881 65.1884 75.7379 64.5509C75.3185 64.2321 74.8311 63.9703 74.3097 63.8109C74.0489 63.7198 73.7882 63.6402 73.5048 63.6174C73.2214 63.5832 72.9494 63.5263 72.6546 63.5491C72.3826 63.5605 72.0425 63.5263 71.8271 63.5605C71.5324 63.6174 71.1583 63.6288 70.9316 63.7198C70.4669 63.8678 69.9454 64.05 69.5487 64.3801C69.1293 64.6761 68.8005 65.0745 68.5058 65.4729C68.2451 65.8941 68.0184 66.3267 67.8483 66.7479C67.5196 67.6017 67.3496 68.3758 67.2589 68.9109C67.1569 69.4573 67.1342 69.776 67.1342 69.776C67.1342 69.776 67.0435 69.4687 66.9868 68.8995C66.9301 68.3303 66.8961 67.5106 67.1002 66.5203C67.2022 66.0308 67.3609 65.4957 67.633 64.9607C67.9163 64.437 68.2677 63.8792 68.8005 63.458C69.2993 63.0027 69.9228 62.6612 70.6482 62.4449C71.011 62.3196 71.283 62.3196 71.6004 62.2513C72.0085 62.183 72.3146 62.2172 72.666 62.1944C73.0061 62.1716 73.3575 62.2513 73.7089 62.3083C74.0603 62.3424 74.389 62.4562 74.7177 62.5815C75.0578 62.6725 75.3639 62.8547 75.6473 63.0368C75.9533 63.1962 76.2027 63.4239 76.4634 63.6402C77.461 64.5281 78.0051 65.6323 78.3225 66.5658C78.6399 67.5106 78.7306 68.3303 78.7646 68.8995C78.8212 69.4573 78.7872 69.776 78.7872 69.776Z" fill="#352836"/>
<path d="M111.57 69.2516C111.57 69.2516 111.491 68.9329 111.31 68.4092C111.128 67.8856 110.856 67.1456 110.426 66.3374C109.983 65.5291 109.371 64.6639 108.521 64.0264C108.102 63.7077 107.614 63.4459 107.093 63.2865C106.832 63.1954 106.571 63.1157 106.288 63.093C106.005 63.0588 105.733 63.0019 105.438 63.0247C105.166 63.0361 104.826 63.0019 104.61 63.0361C104.316 63.093 103.942 63.1044 103.715 63.1954C103.25 63.3434 102.729 63.5256 102.332 63.8557C101.912 64.1517 101.584 64.5501 101.289 64.9485C101.028 65.3697 100.802 65.8023 100.632 66.2235C100.303 67.0773 100.133 67.8514 100.042 68.3864C99.9401 68.9329 99.9174 69.2516 99.9174 69.2516C99.9174 69.2516 99.8267 68.9442 99.77 68.3751C99.7133 67.8059 99.6793 66.9862 99.8834 65.9958C99.9854 65.5063 100.144 64.9713 100.416 64.4363C100.7 63.9126 101.051 63.3548 101.584 62.9336C102.082 62.4783 102.706 62.1367 103.431 61.9204C103.794 61.7952 104.066 61.7952 104.384 61.7269C104.792 61.6586 105.098 61.6928 105.449 61.67C105.789 61.6472 106.141 61.7269 106.492 61.7838C106.843 61.818 107.172 61.9318 107.501 62.0571C107.841 62.1481 108.147 62.3303 108.43 62.5124C108.737 62.6718 108.986 62.8995 109.247 63.1157C110.244 64.0037 110.788 65.1079 111.106 66.0414C111.423 66.9862 111.514 67.8059 111.548 68.3751C111.604 68.9215 111.57 69.2516 111.57 69.2516Z" fill="#352836"/>
<path d="M103.736 91.8828C96.765 98.6903 84.9532 98.3147 75.998 92.2471L103.736 91.8828Z" fill="white"/>
<path d="M50.728 31.7215C52.6722 23.6367 57.3207 21.5951 59.5555 21.0732C60.8405 0.228779 114.476 -3.58747 115.169 0.402771C115.918 4.6598 96.173 11.6195 96.173 11.6195C96.173 11.6195 131.561 1.95711 129.695 10.4596C128.187 17.3729 113.895 16.6305 108.576 16.097C116.041 17.0597 141.573 21.3167 130.064 33.2643C129.125 34.2386 128.097 35.0738 127.025 35.8046C128.097 50.6172 123.862 85.4622 123.862 85.4622H120.879L121.996 61.486C116.219 60.2912 113.582 46.0818 112.688 39.76C102.911 39.8992 93.0889 36.4541 89.4574 35.0274C91.6475 36.083 95.1003 38.5073 91.3234 42.1495C87.4684 45.873 73.6348 41.3376 66.6846 38.7277C65.4107 44.3766 61.2986 60.21 55.1864 61.486L56.3038 85.4622H53.3203C53.3427 85.4622 48.1244 42.5439 50.728 31.7215Z" fill="#75403E"/>
<path d="M50.7275 31.7217C52.6717 23.6368 57.3202 21.5953 59.555 21.0733C59.7896 17.2687 61.7786 14.0324 64.8627 11.2949C66.5276 25.4232 76.4949 37.4403 89.1328 43.2517C83.691 44.6204 72.651 40.9782 66.6841 38.7394C65.4102 44.3884 61.2981 60.2218 55.1859 61.4977L56.3033 85.474H53.3198C53.3422 85.4624 48.1239 42.5441 50.7275 31.7217Z" fill="#5F3433"/>
</g>
<defs>
<clipPath id="clip0_593_3116">
<rect width="175" height="202" fill="white"/>
</clipPath>
</defs>
</svg>
