<svg width="255" height="255" viewBox="0 0 255 255" fill="none" xmlns="http://www.w3.org/2000/svg">
<g filter="url(#filter0_b_593_3115)">
<rect width="255" height="255" rx="20" fill="white"/>
<g clip-path="url(#clip0_593_3115)">
<path d="M150.68 188.87C141.077 183.65 143.693 158.442 143.693 158.442L129.311 159.367V158.442L127.771 158.905L126.231 158.442V159.367L111.85 158.442C111.85 158.442 114.466 183.65 104.863 188.87C95.2603 194.089 38.5048 196.693 44.6084 254.932H126.231H129.311H210.934C217.049 196.693 160.294 194.089 150.68 188.87Z" fill="#FFAD9D"/>
<path d="M109.834 182.376C121.328 180.673 132.81 178.915 144.281 177.1C142.662 168.408 143.704 158.453 143.704 158.453L129.322 159.378V158.453L127.782 158.915L126.242 158.453V159.378L111.861 158.453C111.85 158.442 113.367 173.097 109.834 182.376Z" fill="#E08880"/>
<path d="M159.908 191.801C152.095 198.745 140.601 203.142 127.771 203.142C114.952 203.142 103.458 198.745 95.6335 191.801C76.7339 196.863 39.6027 207.257 44.6079 254.944H126.231H129.311H210.934C215.939 207.257 178.808 196.863 159.908 191.801Z" fill="#FFBC7E"/>
<path d="M44.2013 245.034C44.1334 248.146 44.258 251.427 44.6203 254.933H210.935C213.109 234.234 207.334 220.571 198.569 211.315C146.66 220.346 95.2836 232.126 44.2013 245.034Z" fill="#FFA755"/>
<path d="M93.0754 189.613L102.893 255H40.2379C40.2379 255 33.4436 199.387 93.0754 189.613Z" fill="#2D5B79"/>
<path d="M161.925 189.613L152.107 255H214.763C214.763 255 221.557 199.387 161.925 189.613Z" fill="#2D5B79"/>
<path d="M99.6543 121.545C96.8233 112.808 90.1196 114.826 89.4968 115.04C88.84 115.119 81.9097 116.145 83.1101 125.242C84.3104 134.408 89.6553 139.368 94.6605 137.914C99.8015 137.091 102.497 130.338 99.6543 121.545Z" fill="#E08880"/>
<path d="M156.16 121.545C158.991 112.808 165.695 114.826 166.317 115.04C166.974 115.119 173.904 116.145 172.704 125.242C171.504 134.408 166.159 139.368 161.154 137.914C156.001 137.091 153.306 130.338 156.16 121.545Z" fill="#E08880"/>
<path d="M92.7806 108.298C96.291 69.9795 125.552 72.1215 128.304 72.4146C131.067 72.1215 160.328 69.9795 163.827 108.298C167.36 146.842 150.114 172.016 128.304 170.641C106.505 172.027 89.2588 146.854 92.7806 108.298Z" fill="#FFAD9D"/>
<path d="M92.024 114.443C92.024 114.443 90.1309 165.294 119.989 170.986C149.836 176.678 168.358 151.634 165.706 111.79L161.931 111.415C161.931 111.415 159.471 151.634 150.403 152.021C141.334 152.396 154.744 139.498 137.367 138.736C119.989 137.973 111.385 132.156 109.968 146.898C109.027 156.768 96.9323 139.874 95.4247 113.691C93.917 87.4973 92.024 114.443 92.024 114.443Z" fill="#75403E"/>
<path d="M96.8525 125.37C96.1724 121.75 95.6623 117.834 95.4242 113.69C93.9166 87.5076 92.0235 114.453 92.0235 114.453C92.0235 114.453 91.8195 119.974 92.613 127.579C94.0299 126.839 95.4469 126.099 96.8525 125.37Z" fill="#5F3433"/>
<path d="M165.74 125.701C166.035 121.296 166.035 116.651 165.706 111.779L161.931 111.403C161.931 111.403 161.591 116.913 160.707 123.869C162.385 124.472 164.062 125.087 165.74 125.701Z" fill="#5F3433"/>
<path d="M133.853 111.631C134.34 113.407 134.714 115.194 135.054 116.993C135.395 118.78 135.678 120.579 135.927 122.389C136.063 123.288 136.154 124.199 136.267 125.098C136.381 125.997 136.471 126.908 136.562 127.807C136.755 129.617 136.879 131.427 136.993 133.249L137.027 133.738L136.675 133.954C135.519 134.672 134.352 135.355 133.173 136.026C131.982 136.687 130.792 137.347 129.557 137.939C130.554 136.994 131.597 136.117 132.64 135.241C133.694 134.376 134.76 133.533 135.837 132.702L135.519 133.408C135.224 131.609 134.964 129.811 134.748 128.001C134.635 127.101 134.522 126.191 134.442 125.291C134.363 124.381 134.25 123.481 134.193 122.571C134.046 120.761 133.932 118.939 133.864 117.118C133.785 115.296 133.762 113.464 133.853 111.631Z" fill="#E08880"/>
<path d="M156.434 108.762C156.434 108.762 156.128 108.591 155.595 108.295C155.334 108.147 155.017 107.976 154.665 107.783C154.314 107.589 153.917 107.385 153.475 107.157C153.022 106.963 152.58 106.702 152.069 106.508C151.82 106.394 151.571 106.292 151.321 106.178C151.061 106.087 150.8 105.984 150.528 105.893C150.006 105.666 149.44 105.575 148.895 105.381C148.329 105.324 147.785 105.108 147.218 105.131L146.379 105.062C146.107 105.096 145.824 105.108 145.551 105.119C144.996 105.096 144.475 105.301 143.942 105.37C143.409 105.461 142.922 105.711 142.423 105.848L142.049 105.962L141.709 106.132C141.482 106.235 141.255 106.349 141.04 106.451C140.609 106.667 140.178 106.815 139.85 107.043C139.51 107.259 139.192 107.419 138.931 107.567C138.399 107.851 138.059 107.999 138.059 107.999C138.059 107.999 138.195 107.681 138.489 107.134C138.637 106.861 138.818 106.531 139.056 106.166C139.272 105.779 139.6 105.415 139.986 105.028C140.382 104.652 140.734 104.152 141.289 103.821C141.833 103.491 142.366 103.036 143.035 102.785C143.364 102.649 143.715 102.524 144.066 102.41C144.418 102.262 144.781 102.194 145.166 102.148C145.54 102.091 145.926 102.034 146.322 102C146.708 102 147.093 102.034 147.49 102.057C148.272 102.068 148.998 102.33 149.734 102.512C150.086 102.637 150.414 102.785 150.755 102.933C151.095 103.07 151.412 103.229 151.695 103.423C151.99 103.605 152.285 103.776 152.557 103.958C152.818 104.163 153.067 104.356 153.305 104.561C153.804 104.937 154.178 105.392 154.552 105.768C155.255 106.576 155.742 107.316 156.026 107.874C156.32 108.409 156.434 108.762 156.434 108.762Z" fill="#352836"/>
<path d="M119.943 108.762C119.943 108.762 119.637 108.591 119.105 108.295C118.844 108.147 118.527 107.976 118.175 107.783C117.824 107.589 117.427 107.385 116.985 107.157C116.531 106.963 116.089 106.702 115.579 106.508C115.33 106.394 115.08 106.292 114.831 106.178C114.57 106.087 114.31 105.984 114.038 105.893C113.516 105.666 112.949 105.575 112.405 105.381C111.838 105.324 111.294 105.108 110.728 105.131L109.889 105.062C109.617 105.096 109.333 105.108 109.061 105.119C108.506 105.096 107.984 105.301 107.452 105.37C106.919 105.461 106.431 105.711 105.933 105.848L105.559 105.962L105.218 106.132C104.992 106.235 104.765 106.349 104.55 106.451C104.119 106.667 103.688 106.815 103.359 107.043C103.019 107.259 102.702 107.419 102.441 107.567C101.908 107.851 101.568 107.999 101.568 107.999C101.568 107.999 101.704 107.681 101.999 107.134C102.146 106.861 102.328 106.531 102.566 106.166C102.781 105.779 103.11 105.415 103.495 105.028C103.892 104.652 104.244 104.152 104.799 103.821C105.343 103.491 105.876 103.036 106.545 102.785C106.873 102.649 107.225 102.524 107.576 102.41C107.928 102.262 108.29 102.194 108.676 102.148C109.05 102.091 109.435 102.034 109.832 102C110.217 102 110.603 102.034 111 102.057C111.782 102.068 112.507 102.33 113.244 102.512C113.596 102.637 113.924 102.785 114.264 102.933C114.604 103.07 114.922 103.229 115.205 103.423C115.5 103.605 115.795 103.776 116.067 103.958C116.327 104.163 116.577 104.356 116.815 104.561C117.314 104.937 117.688 105.392 118.062 105.768C118.765 106.576 119.252 107.316 119.535 107.874C119.83 108.409 119.943 108.762 119.943 108.762Z" fill="#352836"/>
<path d="M118.787 122.776C118.787 122.776 118.708 122.457 118.527 121.934C118.345 121.41 118.073 120.67 117.642 119.862C117.2 119.054 116.588 118.188 115.738 117.551C115.319 117.232 114.831 116.97 114.31 116.811C114.049 116.72 113.788 116.64 113.505 116.617C113.221 116.583 112.949 116.526 112.655 116.549C112.383 116.56 112.043 116.526 111.827 116.56C111.532 116.617 111.158 116.629 110.932 116.72C110.467 116.868 109.945 117.05 109.549 117.38C109.129 117.676 108.801 118.075 108.506 118.473C108.245 118.894 108.018 119.327 107.848 119.748C107.52 120.602 107.35 121.376 107.259 121.911C107.157 122.457 107.134 122.776 107.134 122.776C107.134 122.776 107.043 122.469 106.987 121.899C106.93 121.33 106.896 120.511 107.1 119.52C107.202 119.031 107.361 118.496 107.633 117.961C107.916 117.437 108.268 116.879 108.801 116.458C109.299 116.003 109.923 115.661 110.648 115.445C111.011 115.32 111.283 115.32 111.6 115.251C112.009 115.183 112.315 115.217 112.666 115.194C113.006 115.172 113.357 115.251 113.709 115.308C114.06 115.342 114.389 115.456 114.718 115.581C115.058 115.673 115.364 115.855 115.647 116.037C115.953 116.196 116.203 116.424 116.463 116.64C117.461 117.528 118.005 118.632 118.322 119.566C118.64 120.511 118.731 121.33 118.765 121.899C118.821 122.457 118.787 122.776 118.787 122.776Z" fill="#352836"/>
<path d="M151.57 122.252C151.57 122.252 151.491 121.933 151.31 121.409C151.128 120.886 150.856 120.146 150.426 119.337C149.983 118.529 149.371 117.664 148.521 117.026C148.102 116.708 147.614 116.446 147.093 116.287C146.832 116.195 146.571 116.116 146.288 116.093C146.005 116.059 145.733 116.002 145.438 116.025C145.166 116.036 144.826 116.002 144.61 116.036C144.316 116.093 143.942 116.104 143.715 116.195C143.25 116.343 142.729 116.526 142.332 116.856C141.912 117.152 141.584 117.55 141.289 117.949C141.028 118.37 140.802 118.802 140.632 119.224C140.303 120.077 140.133 120.851 140.042 121.386C139.94 121.933 139.917 122.252 139.917 122.252C139.917 122.252 139.827 121.944 139.77 121.375C139.713 120.806 139.679 119.986 139.883 118.996C139.985 118.506 140.144 117.971 140.416 117.436C140.7 116.913 141.051 116.355 141.584 115.934C142.082 115.478 142.706 115.137 143.431 114.92C143.794 114.795 144.066 114.795 144.384 114.727C144.792 114.659 145.098 114.693 145.449 114.67C145.789 114.647 146.141 114.727 146.492 114.784C146.843 114.818 147.172 114.932 147.501 115.057C147.841 115.148 148.147 115.33 148.43 115.512C148.737 115.672 148.986 115.899 149.247 116.116C150.244 117.004 150.788 118.108 151.106 119.041C151.423 119.986 151.514 120.806 151.548 121.375C151.604 121.921 151.57 122.252 151.57 122.252Z" fill="#352836"/>
<path d="M143.736 144.883C136.765 151.69 124.953 151.315 115.998 145.247L143.736 144.883Z" fill="white"/>
<path d="M90.728 84.7215C92.6722 76.6367 97.3207 74.5951 99.5555 74.0732C100.84 53.2288 154.476 49.4125 155.169 53.4028C155.918 57.6598 136.173 64.6195 136.173 64.6195C136.173 64.6195 171.561 54.9571 169.695 63.4596C168.187 70.3729 153.895 69.6305 148.576 69.097C156.041 70.0597 181.573 74.3167 170.064 86.2643C169.125 87.2386 168.097 88.0738 167.025 88.8046C168.097 103.617 163.862 138.462 163.862 138.462H160.879L161.996 114.486C156.219 113.291 153.582 99.0818 152.688 92.76C142.911 92.8992 133.089 89.4541 129.457 88.0274C131.647 89.083 135.1 91.5073 131.323 95.1495C127.468 98.873 113.635 94.3376 106.685 91.7277C105.411 97.3766 101.299 113.21 95.1864 114.486L96.3038 138.462H93.3203C93.3427 138.462 88.1244 95.5439 90.728 84.7215Z" fill="#75403E"/>
<path d="M90.7275 84.7217C92.6717 76.6368 97.3202 74.5953 99.555 74.0733C99.7896 70.2687 101.779 67.0324 104.863 64.2949C106.528 78.4232 116.495 90.4403 129.133 96.2517C123.691 97.6204 112.651 93.9782 106.684 91.7394C105.41 97.3884 101.298 113.222 95.1859 114.498L96.3033 138.474H93.3198C93.3422 138.462 88.1239 95.5441 90.7275 84.7217Z" fill="#5F3433"/>
</g>
</g>
<defs>
<filter id="filter0_b_593_3115" x="-4" y="-4" width="263" height="263" filterUnits="userSpaceOnUse" color-interpolation-filters="sRGB">
<feFlood flood-opacity="0" result="BackgroundImageFix"/>
<feGaussianBlur in="BackgroundImage" stdDeviation="2"/>
<feComposite in2="SourceAlpha" operator="in" result="effect1_backgroundBlur_593_3115"/>
<feBlend mode="normal" in="SourceGraphic" in2="effect1_backgroundBlur_593_3115" result="shape"/>
</filter>
<clipPath id="clip0_593_3115">
<rect width="175" height="202" fill="white" transform="translate(40 53)"/>
</clipPath>
</defs>
</svg>
